<svg class="svg-icon" style="width: 1em; height: 1em;vertical-align: middle;fill: currentColor;overflow: hidden;" viewBox="0 0 1024 1024" version="1.1" xmlns="http://www.w3.org/2000/svg"><path d="M391.253333 554.666667H128a42.666667 42.666667 0 0 1-42.666667-42.666667C85.333333 276.352 276.352 85.333333 512 85.333333a426.666667 426.666667 0 0 1 396.373333 268.544 42.666667 42.666667 0 1 1-79.232 31.616A341.418667 341.418667 0 0 0 173.312 469.333333H391.253333a128.042667 128.042667 0 0 1 241.408 0h263.381334a42.666667 42.666667 0 0 1 42.666666 42.666667c0 235.648-191.018667 426.666667-426.666666 426.666667a426.752 426.752 0 0 1-396.373334-268.544 42.666667 42.666667 0 0 1 79.232-31.616A341.418667 341.418667 0 0 0 850.730667 554.666667h-218.026667a128.042667 128.042667 0 0 1-241.408 0zM512 554.666667a42.666667 42.666667 0 1 0 0-85.333334 42.666667 42.666667 0 0 0 0 85.333334z"  /></svg>